<svg xmlns="http://www.w3.org/2000/svg" xmlns:svg="http://www.w3.org/2000/svg" xmlns:xlink="http://www.w3.org/1999/xlink" style="display:inline;enable-background:new" id="svg11300" width="192" height="152" version="1.0" viewBox="0 0 192 152"><title id="title4162">Adwaita Icon Template</title><defs id="defs3"><linearGradient id="linearGradient33387"><stop id="stop33383" offset="0" style="stop-color:#ec8878;stop-opacity:.55000001"/><stop id="stop33385" offset="1" style="stop-color:#3571e4;stop-opacity:.50063592"/></linearGradient><linearGradient id="linearGradient3983"><stop id="stop3979" offset="0" style="stop-color:#ffab45;stop-opacity:1"/><stop id="stop3981" offset="1" style="stop-color:#dd6d9f;stop-opacity:1"/></linearGradient><linearGradient id="linearGradient3928"><stop id="stop3924" offset="0" style="stop-color:#3571e4;stop-opacity:1"/><stop id="stop3926" offset="1" style="stop-color:#4bcdf0;stop-opacity:1"/></linearGradient><linearGradient id="linearGradient32900" x1="159.094" x2="181.901" y1="154.93" y2="210.821" gradientUnits="userSpaceOnUse" xlink:href="#linearGradient3983"/><linearGradient id="linearGradient32902" x1="128.22" x2="125.686" y1="243.433" y2="181.426" gradientUnits="userSpaceOnUse" xlink:href="#linearGradient3928"/><linearGradient id="linearGradient33389" x1="24" x2="24" y1="194" y2="276" gradientUnits="userSpaceOnUse" xlink:href="#linearGradient33387"/></defs><metadata id="metadata4"/><g style="display:inline" id="layer1" transform="translate(8,-156)"><g style="display:inline" id="layer4"><rect style="display:inline;overflow:visible;visibility:visible;fill:#f0f0f0;fill-opacity:0;fill-rule:nonzero;stroke:none;stroke-width:.5;marker:none;enable-background:accumulate" id="hicolor" width="128" height="128" x="0" y="172"/><rect id="symbolic" width="16" height="16" x="160" y="172" style="display:inline;overflow:visible;visibility:visible;fill:#f0f0f0;fill-opacity:0;fill-rule:nonzero;stroke:none;stroke-width:.5;marker:none;enable-background:accumulate"/></g><g style="display:inline" id="layer2"><rect id="128" width="128" height="128" x="0" y="172" style="display:inline;overflow:visible;visibility:visible;fill:#f0f0f0;fill-opacity:1;fill-rule:nonzero;stroke:none;stroke-width:.5;marker:none;enable-background:accumulate"/><rect style="display:inline;overflow:visible;visibility:visible;fill:#f0f0f0;fill-opacity:1;fill-rule:nonzero;stroke:none;stroke-width:.5;marker:none;enable-background:accumulate" id="16" width="16" height="16" x="160" y="172"/><text id="text863" x="0" y="167" xml:space="preserve" style="font-style:normal;font-variant:normal;font-weight:700;font-stretch:normal;font-size:4px;line-height:125%;font-family:Cantarell;-inkscape-font-specification:'Cantarell, Bold';text-align:start;writing-mode:lr-tb;text-anchor:start;display:inline;fill:#000;fill-opacity:1;stroke:none;stroke-width:.332649;enable-background:new"><tspan id="tspan861" x="0" y="167" style="font-size:4px;stroke-width:.332649">Hicolor</tspan></text><text style="font-style:normal;font-variant:normal;font-weight:700;font-stretch:normal;font-size:4px;line-height:125%;font-family:Cantarell;-inkscape-font-specification:'Cantarell, Bold';text-align:start;writing-mode:lr-tb;text-anchor:start;display:inline;fill:#000;fill-opacity:1;stroke:none;stroke-width:.332649;enable-background:new" id="text867" x="160" y="167" xml:space="preserve"><tspan style="font-size:4px;stroke-width:.332649" id="tspan865" x="160" y="167">Symbolic</tspan></text></g><g style="display:inline" id="layer9"><g id="g33975" transform="translate(70)"><path style="opacity:1;fill:#000;fill-opacity:1;stroke-width:2;stroke-linecap:round;stroke-linejoin:round" id="rect8412" d="M 172.77149,173.07031 C 172.91695,173.34792 173,173.66369 173,174 v 12 c -7e-5,0.004 1.2e-4,0.007 -3e-5,0.0117 l 2.70312,-10.08594 c 0.28677,-1.07024 -0.34577,-2.16244 -1.41602,-2.44922 z"/><path id="rect8371" d="m 164,172 c -1.6447,0 -3,1.3553 -3,3 v 10 c 0,1.6447 1.3553,3 3,3 h 5 c 1.6447,0 3,-1.3553 3,-3 v -10 c 0,-1.6447 -1.3553,-3 -3,-3 z m 0,2 h 5 c 0.5713,0 1,0.4287 1,1 v 10 c 0,0.5713 -0.4287,1 -1,1 h -5 c -0.5713,0 -1,-0.4287 -1,-1 v -10 c 0,-0.5713 0.4287,-1 1,-1 z" style="color:#000;fill:#000;stroke-linecap:round;stroke-linejoin:round;-inkscape-stroke:none"/><path id="path17311" d="m 165,180 2,2 4,-5" style="fill:none;stroke:#000;stroke-width:2;stroke-linecap:round;stroke-linejoin:round;stroke-opacity:1"/></g><rect id="rect32868" width="72" height="104" x="112.375" y="145.142" rx="8" ry="8" transform="rotate(20)" style="fill:url(#linearGradient32900);fill-opacity:1;stroke:none;stroke-width:.35429;stroke-linecap:round;stroke-linejoin:round"/><rect id="rect32870" width="72" height="104" x="63.896" y="169.011" rx="8" ry="8" transform="rotate(10)" style="fill:url(#linearGradient32902);fill-opacity:1;stroke:none;stroke-width:.35429;stroke-linecap:round;stroke-linejoin:round"/><path style="fill:#000;fill-opacity:.25;stroke:none;stroke-width:.35429;stroke-linecap:round;stroke-linejoin:round" id="rect5692" d="M 133.60133 171.39844 C 134.21512 172.53178 134.56385 173.83074 134.56385 175.21506 L 134.56348 263.21414 C 134.56348 267.64614 130.99571 271.21507 126.56371 271.21507 L 70.564443 271.21463 C 68.324975 271.21463 66.3079 270.30251 64.858484 268.82938 C 66.210065 271.32358 68.84955 273.0106 71.896547 273.0106 L 127.89582 273.01104 C 132.32781 273.01104 135.89558 269.44211 135.89558 265.01011 L 135.89596 177.01103 C 135.89596 174.8191 135.01968 172.8406 133.60133 171.39844 z" transform="rotate(10)"/><path style="fill:#000;fill-opacity:.1;stroke:none;stroke-width:.35429;stroke-linecap:round;stroke-linejoin:round" id="rect5699" d="M 181.01455 146.62533 C 182.0999 147.99053 182.75026 149.71802 182.75026 151.60545 L 182.75051 239.6058 C 182.75051 244.03779 179.18227 247.60575 174.75027 247.60575 L 118.75147 247.60407 C 117.01714 247.60407 115.41865 247.05204 114.11097 246.12132 C 115.57419 247.96182 117.83064 249.14143 120.3752 249.14143 L 176.37401 249.14311 C 180.806 249.14311 184.37424 245.57516 184.37424 241.14316 L 184.37399 153.14282 C 184.37399 150.44515 183.04859 148.07301 181.01455 146.62533 z" transform="rotate(20)"/><rect id="rect32872" width="72" height="104" x="12" y="184" rx="8" ry="8" style="fill:#fff;fill-opacity:1;stroke:none;stroke-width:.35429;stroke-linecap:round;stroke-linejoin:round"/><g style="fill:#5e5c64" id="g32888"><rect id="rect32874" width="2" height="72" x="192" y="-84" transform="rotate(90)" style="opacity:1;fill:#5e5c64;fill-opacity:.2;stroke:none;stroke-width:2.00001;stroke-linecap:butt;stroke-linejoin:miter;stroke-opacity:1"/><rect id="rect32876" width="2" height="72" x="206" y="-84" transform="rotate(90)" style="opacity:1;fill:#5e5c64;fill-opacity:.2;stroke:none;stroke-width:2.00001;stroke-linecap:butt;stroke-linejoin:miter;stroke-opacity:1"/><rect id="rect32878" width="2" height="72" x="220" y="-84" transform="rotate(90)" style="opacity:1;fill:#5e5c64;fill-opacity:.2;stroke:none;stroke-width:2.00001;stroke-linecap:butt;stroke-linejoin:miter;stroke-opacity:1"/><rect id="rect32880" width="2" height="72" x="234" y="-84" transform="rotate(90)" style="opacity:1;fill:#5e5c64;fill-opacity:.2;stroke:none;stroke-width:2.00001;stroke-linecap:butt;stroke-linejoin:miter;stroke-opacity:1"/><rect id="rect32882" width="2" height="72" x="248" y="-84" transform="rotate(90)" style="opacity:1;fill:#5e5c64;fill-opacity:.2;stroke:none;stroke-width:2.00001;stroke-linecap:butt;stroke-linejoin:miter;stroke-opacity:1"/><rect id="rect32884" width="2" height="72" x="262" y="-84" transform="rotate(90)" style="opacity:1;fill:#5e5c64;fill-opacity:.2;stroke:none;stroke-width:2.00001;stroke-linecap:butt;stroke-linejoin:miter;stroke-opacity:1"/><rect id="rect32886" width="2" height="72" x="276" y="-84" transform="rotate(90)" style="opacity:1;fill:#5e5c64;fill-opacity:.2;stroke:none;stroke-width:2.00001;stroke-linecap:butt;stroke-linejoin:miter;stroke-opacity:1"/></g><rect id="rect32890" width="4" height="104" x="20" y="184" style="fill:url(#linearGradient33389);fill-opacity:1;stroke:none;stroke-width:2.00001;stroke-linecap:butt;stroke-linejoin:miter;stroke-opacity:1"/><path id="path32892" d="m 63.935702,222.58826 -18.55314,22.67762 a 0.86769537,0.86769537 175.82917 0 1 -1.256341,0.0916 l -9.413492,-8.58692 a 1.8403814,1.8403814 178.68546 0 0 -2.541627,0.0583 l -0.273333,0.27333 a 2.1459522,2.1459522 94.156136 0 0 -0.20343,2.79953 l 11.08145,14.87352 a 2.8690047,2.8690047 178.60587 0 0 4.681986,-0.11394 l 19.907373,-29.62583 a 2.3325602,2.3325602 80.720413 0 0 -0.514758,-3.15048 2.1531938,2.1531938 166.43544 0 0 -2.914688,0.70323 z" style="color:#000;display:inline;fill:#3d3846;stroke:#3d3846;stroke-width:1.5;stroke-opacity:1;-inkscape-stroke:none;enable-background:new"/><path style="fill:#000;fill-opacity:.15000001;stroke:none;stroke-width:.35429;stroke-linecap:round;stroke-linejoin:round" id="rect3482" d="M 12 278 L 12 280 C 12 284.432 15.568004 288 20 288 L 76 288 C 80.431996 288 84 284.432 84 280 L 84 278 C 84 282.432 80.431996 286 76 286 L 20 286 C 15.568004 286 12 282.432 12 278 z"/><g id="g33980" transform="translate(-60)"><path style="opacity:1;fill:#000;fill-opacity:1;stroke-width:2;stroke-linecap:round;stroke-linejoin:round" id="path17305" d="M 232.77149,173.07031 C 232.91695,173.34792 233,173.66369 233,174 v 12 c -7e-5,0.004 1.2e-4,0.007 -3e-5,0.0117 l 2.70312,-10.08594 c 0.28677,-1.07024 -0.34577,-2.16244 -1.41602,-2.44922 z"/><path id="path17307" d="m 224,172 c -1.6447,0 -3,1.3553 -3,3 v 10 c 0,1.6447 1.3553,3 3,3 h 5 c 1.6447,0 3,-1.3553 3,-3 v -10 c 0,-1.6447 -1.3553,-3 -3,-3 z m 0,2 h 5 c 0.5713,0 1,0.4287 1,1 v 10 c 0,0.5713 -0.4287,1 -1,1 h -5 c -0.5713,0 -1,-0.4287 -1,-1 v -10 c 0,-0.5713 0.4287,-1 1,-1 z" style="color:#000;fill:#000;stroke-linecap:round;stroke-linejoin:round;-inkscape-stroke:none"/><path style="color:#000;fill:#000;fill-opacity:1;stroke-width:1.5;-inkscape-stroke:none" id="path17309" d="m 229.23044,176.96269 c -0.031,0.002 -0.0616,0.006 -0.0917,0.0132 -0.11803,0.0285 -0.22393,0.1025 -0.29476,0.21064 l 0.003,-0.008 -3.14602,3.84551 c -0.008,0.0103 -0.0194,0.0109 -0.0292,0.002 l -1.59603,-1.45593 c -0.17248,-0.15733 -0.44167,-0.15116 -0.60675,0.0139 l -0.0464,0.0464 c -0.17172,0.17173 -0.19146,0.44579 -0.0464,0.64053 l 1.87888,2.52205 c 0.25055,0.3363 0.76763,0.32391 1.00153,-0.0242 l 3.37587,-5.0239 c 0.15314,-0.22789 0.10213,-0.53848 -0.11559,-0.70578 l -0.006,-0.005 -0.007,-0.004 c -0.0855,-0.0504 -0.18083,-0.0719 -0.27389,-0.0672 z"/></g></g><g style="display:inline" id="layer3"><circle style="display:inline;opacity:.1;vector-effect:none;fill:none;fill-opacity:1;stroke:#000;stroke-width:.99;stroke-linecap:butt;stroke-linejoin:miter;stroke-miterlimit:4;stroke-dasharray:.99,.99;stroke-dashoffset:0;stroke-opacity:1;marker:none;marker-start:none;marker-mid:none;marker-end:none;paint-order:normal;enable-background:new" id="circle2892" cx="64" cy="236" r="59.504"/><rect style="display:inline;opacity:.1;vector-effect:none;fill:none;fill-opacity:1;stroke:#000;stroke-width:.99;stroke-linecap:butt;stroke-linejoin:miter;stroke-miterlimit:4;stroke-dasharray:.99,.99;stroke-dashoffset:0;stroke-opacity:1;marker:none;marker-start:none;marker-mid:none;marker-end:none;paint-order:normal;enable-background:new" id="rect2894" width="87.01" height="111.01" x="20.495" y="180.495" rx="8.701" ry="7.929"/><rect style="display:inline;opacity:.1;vector-effect:none;fill:none;fill-opacity:1;stroke:#000;stroke-width:.99;stroke-linecap:butt;stroke-linejoin:miter;stroke-miterlimit:4;stroke-dasharray:.99,.99;stroke-dashoffset:0;stroke-opacity:1;marker:none;marker-start:none;marker-mid:none;marker-end:none;paint-order:normal;enable-background:new" id="rect2896" width="103.01" height="103.01" x="12.495" y="184.495" rx="7.924" ry="7.924"/><rect style="display:inline;opacity:.1;vector-effect:none;fill:none;fill-opacity:1;stroke:#000;stroke-width:.99;stroke-linecap:butt;stroke-linejoin:miter;stroke-miterlimit:4;stroke-dasharray:.99,.99;stroke-dashoffset:0;stroke-opacity:1;marker:none;marker-start:none;marker-mid:none;marker-end:none;paint-order:normal;enable-background:new" id="rect2898" width="111.01" height="87.01" x="8.495" y="200.495" rx="7.929" ry="8.701"/><path style="display:inline;fill:none;stroke:#62a0ea;stroke-width:2;stroke-linecap:butt;stroke-linejoin:miter;stroke-miterlimit:4;stroke-dasharray:none;stroke-opacity:1;enable-background:new" id="path2900" d="M 2.6203015e-5,288.99999 H 128.00003"/></g></g></svg>