<svg xmlns="http://www.w3.org/2000/svg" xmlns:svg="http://www.w3.org/2000/svg" id="svg1" width="16" height="16" version="1.1" viewBox="0 0 16 16"><g id="g1" transform="rotate(180,8,7.25)"><path id="path1" fill="#222" d="M 5,2 C 3.910156,2 3,2.910156 3,4 v 5 c 0,1.089844 0.910156,2 2,2 h 6 c 1.089844,0 2,-0.910156 2,-2 V 4 C 13,2.910156 12.089844,2 11,2 Z M 2,3 C 0.910156,3 0,3.910156 0,5 v 3 c 0,1.089844 0.910156,2 2,2 z m 12,0 v 7 c 1.089844,0 2,-0.910156 2,-2 V 5 C 16,3.910156 15.089844,3 14,3 Z M 5,4 h 6 V 9 H 5 Z"/></g></svg>