<svg xmlns="http://www.w3.org/2000/svg" xmlns:bx="https://boxy-svg.com" xmlns:svg="http://www.w3.org/2000/svg" xmlns:xlink="http://www.w3.org/1999/xlink" id="svg6649" width="48" height="48" version="1.1"><defs id="defs6651"><linearGradient id="linearGradient3058" x1="39" x2="39" y1="6" y2="41.945" gradientTransform="translate(4e-6,1.000006)" gradientUnits="userSpaceOnUse" xlink:href="#linearGradient3924-1"/><linearGradient id="linearGradient3924-1"><stop id="stop3926-3" offset="0" style="stop-color:#fff;stop-opacity:1"/><stop id="stop3928-91" offset=".028" style="stop-color:#fff;stop-opacity:.23529412"/><stop id="stop3930-6" offset=".974" style="stop-color:#fff;stop-opacity:.15686275"/><stop id="stop3932-6" offset="1" style="stop-color:#fff;stop-opacity:.39215687"/></linearGradient><radialGradient id="radialGradient3013" cx="4.993" cy="43.5" r="2.5" gradientTransform="matrix(2.003784,0,0,1.4,27.98813,-17.4)" gradientUnits="userSpaceOnUse" xlink:href="#linearGradient3688-166-749"/><linearGradient id="linearGradient3688-166-749"><stop id="stop2883" offset="0" style="stop-color:#181818;stop-opacity:1"/><stop id="stop2885" offset="1" style="stop-color:#181818;stop-opacity:0"/></linearGradient><radialGradient id="radialGradient3015" cx="4.993" cy="43.5" r="2.5" gradientTransform="matrix(2.003784,0,0,1.4,-20.01187,-104.4)" gradientUnits="userSpaceOnUse" xlink:href="#linearGradient3688-464-309"/><linearGradient id="linearGradient3688-464-309"><stop id="stop2889" offset="0" style="stop-color:#181818;stop-opacity:1"/><stop id="stop2891" offset="1" style="stop-color:#181818;stop-opacity:0"/></linearGradient><linearGradient id="linearGradient3702-501-757"><stop id="stop2895" offset="0" style="stop-color:#181818;stop-opacity:0"/><stop id="stop2897" offset=".5" style="stop-color:#181818;stop-opacity:1"/><stop id="stop2899" offset="1" style="stop-color:#181818;stop-opacity:0"/></linearGradient><linearGradient id="linearGradient6647" x1="25.058" x2="25.058" y1="47.028" y2="39.999" gradientUnits="userSpaceOnUse" xlink:href="#linearGradient3702-501-757"/><linearGradient id="linearGradient856" x1="23.528" x2="23.528" y1="6.083" y2="44.233" gradientUnits="userSpaceOnUse" xlink:href="#linearGradient1067"/><filter id="filter3831" width="1.153" height="1.136" x="-.076" y="-.068" color-interpolation-filters="sRGB"><feGaussianBlur id="feGaussianBlur3833" stdDeviation=".637"/></filter><clipPath id="clipPath3823"><path style="fill:#fff;fill-opacity:1;stroke:none" id="path3825" d="M 108.8125,58 C 107.25437,58 106,59.254375 106,60.8125 l 0,24.375 C 106,86.745625 107.25437,88 108.8125,88 l 24.375,0 C 134.74562,88 136,86.745625 136,85.1875 l 0,-24.375 C 136,59.254375 134.74562,58 133.1875,58 l -24.375,0 z m 7.1875,4.5 10,0 0,8.75 5,0 -10,13.75 -10,-13.75 5,0 0,-8.75 z"/></clipPath><linearGradient id="linearGradient3812" x1="65.263" x2="65.263" y1="64.205" y2="50.069" gradientTransform="matrix(0.625,0,0,0.625,78.5,32.25)" gradientUnits="userSpaceOnUse" xlink:href="#linearGradient5010"/><filter id="filter3806" width="1.192" height="1.192" x="-.096" y="-.096" color-interpolation-filters="sRGB"><feGaussianBlur id="feGaussianBlur3808" stdDeviation="1.2"/></filter><linearGradient id="linearGradient3788" x1="70" x2="70" y1="54" y2="75.095" gradientTransform="translate(0,4)" gradientUnits="userSpaceOnUse" xlink:href="#linearGradient3737"/><linearGradient id="linearGradient3773" x1="56" x2="88" y1="72" y2="72" gradientTransform="matrix(0.9375,0,0,0.9375,-140.5,3.5)" gradientUnits="userSpaceOnUse" xlink:href="#linearGradient3778"/><linearGradient id="linearGradient3832" x1="65.263" x2="65.263" y1="64.205" y2="50.069" gradientTransform="matrix(0.625,0,0,0.625,28.5,31.25)" gradientUnits="userSpaceOnUse" xlink:href="#linearGradient3737"/><filter id="filter3174" width="1.095" height="1.094" x="-.048" y="-.047" color-interpolation-filters="sRGB"><feGaussianBlur id="feGaussianBlur3176" stdDeviation="1.71"/></filter><linearGradient id="linearGradient3737"><stop style="stop-color:#fff;stop-opacity:1" id="stop3739" offset="0"/><stop style="stop-color:#fff;stop-opacity:0" id="stop3741" offset="1"/></linearGradient><linearGradient id="ButtonShadow" x1="45.448" x2="45.448" y1="92.54" y2="7.017" gradientTransform="scale(1.0058652,0.994169)" gradientUnits="userSpaceOnUse"><stop style="stop-color:#000;stop-opacity:1" id="stop3750" offset="0"/><stop style="stop-color:#000;stop-opacity:.58823532" id="stop3752" offset="1"/></linearGradient><linearGradient id="linearGradient5010"><stop style="stop-color:#000;stop-opacity:1" id="stop5012" offset="0"/><stop style="stop-color:#000;stop-opacity:0" id="stop5014" offset="1"/></linearGradient><linearGradient id="linearGradient3778"><stop style="stop-color:#499119;stop-opacity:1" id="stop3780" offset="0"/><stop style="stop-color:#8fd625;stop-opacity:1" id="stop3782" offset="1"/></linearGradient><linearGradient id="linearGradient1067"><stop style="stop-color:#64baff;stop-opacity:1" id="stop1063" offset="0"/><stop style="stop-color:#3689e6;stop-opacity:1" id="stop1065" offset="1"/></linearGradient><radialGradient id="radialGradient3013-6" cx="4.993" cy="43.5" r="2.5" fx="4.993" fy="43.5" gradientTransform="matrix(2.003784,0,0,0.89999994,29.98813,4.8500025)" gradientUnits="userSpaceOnUse" xlink:href="#linearGradient3688-166-749"/><radialGradient id="radialGradient3015-1" cx="4.993" cy="43.5" r="2.5" fx="4.993" fy="43.5" gradientTransform="matrix(2.003784,0,0,0.89999994,-18.01187,-83.149997)" gradientUnits="userSpaceOnUse" xlink:href="#linearGradient3688-166-749"/><linearGradient id="linearGradient1191" x1="25.058" x2="25.058" y1="47.028" y2="39.999" gradientTransform="matrix(1.1428571,0,0,0.6428571,-3.428569,16.035716)" gradientUnits="userSpaceOnUse" xlink:href="#linearGradient3702-501-757"/></defs><g id="g1784"><rect style="opacity:.6;fill:url(#radialGradient3013-6);fill-opacity:1;stroke:none;stroke-width:.862764" id="rect2801-3-7" width="5" height="4.5" x="40" y="41.75"/><rect style="opacity:.6;fill:url(#radialGradient3015-1);fill-opacity:1;stroke:none;stroke-width:.862764" id="rect3696-6-3" width="5" height="4.5" x="-8" y="-46.25" transform="scale(-1)"/><rect style="opacity:.6;fill:url(#linearGradient1191);fill-opacity:1;stroke:none;stroke-width:.862764" id="rect3700-4-6" width="32" height="4.5" x="8" y="41.75"/></g><rect style="color:#000;display:inline;overflow:visible;visibility:visible;opacity:1;fill:url(#linearGradient856);fill-opacity:1;fill-rule:nonzero;stroke:#002e99;stroke-width:1;stroke-opacity:.501961;marker:none;enable-background:accumulate" id="rect5505-21" width="39" height="39" x="4.5" y="5.5" rx="4" ry="4"/><path style="opacity:.5;fill:none;stroke:url(#linearGradient3058);stroke-width:1;stroke-linecap:round;stroke-linejoin:round;stroke-miterlimit:4;stroke-dasharray:none;stroke-dashoffset:0;stroke-opacity:1" id="rect6741" d="M 8.5 6.5 H 39.5 A 3 3 0 0 1 42.5 9.5 V 40.5 A 3 3 0 0 1 39.5 43.5 H 8.5 A 3 3 0 0 1 5.5 40.5 V 9.5 A 3 3 0 0 1 8.5 6.5 Z" bx:shape="rect 5.5 6.5 37 37 3 3 3 3 1@1589c883"/><g style="display:none" id="layer2" transform="translate(-245.56881,-26.66562)"><path style="opacity:.9;fill:url(#ButtonShadow);fill-opacity:1;fill-rule:nonzero;stroke:none;filter:url(#filter3174)" id="rect3745" d="M 11,7 48,5 85,7 c 3.324,0 6,2.676 6,6 v 73 c 0,3.324 -2.676,6 -6,6 H 11 C 7.676,92 5,89.324 5,86 V 13 C 5,9.676 7.676,7 11,7 Z"/></g><g style="display:none" id="layer4" transform="translate(-245.56881,-26.66562)"><rect style="opacity:.6;fill:#000;fill-opacity:1;stroke:none;filter:url(#filter3806)" id="rect3790" width="30" height="30" x="-86" y="56" rx="2.813" ry="2.813" transform="rotate(-90,2,2)"/><rect style="fill:url(#linearGradient3773);fill-opacity:1;stroke:none" id="rect2993" width="30" height="30" x="-88" y="56" rx="2.813" ry="2.813" transform="rotate(-90)"/><path style="opacity:.5;fill:url(#linearGradient3788);fill-opacity:1;stroke:none" id="rect3775" d="M 58.8125,58 C 57.254375,58 56,59.254375 56,60.8125 v 24.375 c 0,0.873066 0.410816,1.641163 1.03125,2.15625 C 57.02841,87.289908 57,87.242129 57,87.1875 V 62.8125 C 57,61.254375 58.17075,60 59.625,60 h 22.75 C 83.82925,60 85,61.254375 85,62.8125 v 24.375 c 0,0.05463 -0.02841,0.102408 -0.03125,0.15625 C 85.589184,86.828663 86,86.060566 86,85.1875 V 60.8125 C 86,59.254375 84.745625,58 83.1875,58 Z"/><path style="display:inline;opacity:.6;fill:url(#linearGradient3812);fill-opacity:1;fill-rule:nonzero;stroke:none;filter:url(#filter3831)" id="path3810" d="m 116,63.5 v 8.75 h -5 L 121,86 131,72.25 h -5 V 63.5 Z" clip-path="url(#clipPath3823)" transform="translate(-50)"/><path style="display:inline;fill:url(#linearGradient3832);fill-opacity:1;fill-rule:nonzero;stroke:none" id="path4278" d="m 66,62.5 v 8.75 H 61 L 71,85 81,71.25 H 76 V 62.5 Z"/></g><path id="path3483" d="m 26.042969,16.027344 c -2.362913,0 -4.402239,1.25303 -5.63086,3.08789 -0.572826,-0.227132 -1.122002,-0.519531 -1.773437,-0.519531 -2.784081,0 -5.058594,2.288712 -5.058594,5.080078 0,0.273385 0.06357,0.508437 0.105469,0.757813 -1.568835,1.310526 -2.658203,3.199353 -2.658203,5.404297 0,3.932344 3.180399,7.134765 7.099609,7.134765 h 11.746094 c 3.919213,0 7.099609,-3.202422 7.099609,-7.134765 0,-2.855323 -1.714085,-5.254905 -4.134765,-6.392579 0.01308,-0.179926 0.04883,-0.358245 0.04883,-0.539062 10e-7,-3.783502 -3.072233,-6.878906 -6.84375,-6.878906 z" style="color:#000;clip-rule:nonzero;display:inline;overflow:visible;visibility:visible;opacity:.15;isolation:auto;mix-blend-mode:normal;color-interpolation:sRGB;color-interpolation-filters:linearRGB;solid-color:#000;solid-opacity:1;fill:#002e99;fill-opacity:.963527;fill-rule:nonzero;stroke:none;stroke-width:1;stroke-linecap:butt;stroke-linejoin:miter;stroke-miterlimit:4;stroke-dasharray:none;stroke-dashoffset:0;stroke-opacity:1;marker:none;color-rendering:auto;image-rendering:auto;shape-rendering:auto;text-rendering:auto;enable-background:accumulate;font-variation-settings:normal;vector-effect:none;stop-color:#000;stop-opacity:1"/><path id="rect4519-8" d="m 26.04257,17.000002 c -2.273369,0 -4.242191,1.309233 -5.218085,3.209467 -0.632512,-0.404176 -1.381267,-0.641881 -2.186171,-0.641881 -2.256134,0 -4.085101,1.839224 -4.085101,4.108104 0,0.360717 0.05673,0.709701 0.14361,1.043049 -1.629457,1.105216 -2.696811,2.985449 -2.696811,5.119073 0,3.413834 2.732937,6.162186 6.127656,6.162186 H 29.87236 c 3.394722,0 6.127652,-2.748352 6.127652,-6.162186 0,-2.726084 -1.750031,-5.02443 -4.180858,-5.841211 0.06596,-0.354297 0.09575,-0.717625 0.09575,-1.091178 C 31.914904,19.643925 29.28578,17 26.042577,17 Z" style="color:#000;clip-rule:nonzero;display:inline;overflow:visible;visibility:visible;opacity:.3;isolation:auto;mix-blend-mode:normal;color-interpolation:sRGB;color-interpolation-filters:linearRGB;solid-color:#000;solid-opacity:1;fill:#002e99;fill-opacity:.963527;fill-rule:nonzero;stroke:none;stroke-width:1;stroke-linecap:butt;stroke-linejoin:miter;stroke-miterlimit:4;stroke-dasharray:none;stroke-dashoffset:0;stroke-opacity:1;marker:none;color-rendering:auto;image-rendering:auto;shape-rendering:auto;text-rendering:auto;enable-background:accumulate;font-variation-settings:normal;vector-effect:none;stop-color:#000;stop-opacity:1"/><path id="rect4519" d="m 26.04257,16.000002 c -2.273369,0 -4.242191,1.309233 -5.218085,3.209467 -0.632512,-0.404176 -1.381267,-0.641881 -2.186171,-0.641881 -2.256134,0 -4.085101,1.839224 -4.085101,4.108104 0,0.360717 0.05673,0.709701 0.14361,1.043049 -1.629457,1.105216 -2.696811,2.985449 -2.696811,5.119073 0,3.413834 2.732937,6.162186 6.127656,6.162186 H 29.87236 c 3.394722,0 6.127652,-2.748352 6.127652,-6.162186 0,-2.726084 -1.750031,-5.02443 -4.180858,-5.841211 0.06596,-0.354297 0.09575,-0.717625 0.09575,-1.091178 C 31.914904,18.643925 29.28578,16 26.042577,16 Z" style="color:#000;display:inline;overflow:visible;visibility:visible;fill:#fff;fill-opacity:1;fill-rule:nonzero;stroke:none;stroke-width:1;stroke-linecap:butt;stroke-linejoin:miter;stroke-miterlimit:4;stroke-dasharray:none;stroke-dashoffset:0;stroke-opacity:1;marker:none;enable-background:accumulate"/></svg>