<svg xmlns="http://www.w3.org/2000/svg" xmlns:svg="http://www.w3.org/2000/svg" id="svg13" width="16" height="16" version="1.1" viewBox="0 0 16 16"><filter id="a" width="1" height="1" x="0" y="0"><feColorMatrix id="feColorMatrix1" color-interpolation-filters="sRGB" values="0 0 0 0 1 0 0 0 0 1 0 0 0 0 1 0 0 0 1 0"/></filter><mask id="b"><g id="g1" filter="url(#a)"><path id="path1" fill-opacity=".5" d="m -1.6 -1.6 h 19.2 v 19.2 h -19.2 z"/></g></mask><clipPath id="c"><path id="path2" d="m 0 0 h 1600 v 1200 h -1600 z"/></clipPath><mask id="d"><g id="g3" filter="url(#a)"><path id="path3" fill-opacity=".7" d="m -1.6 -1.6 h 19.2 v 19.2 h -19.2 z"/></g></mask><clipPath id="e"><path id="path4" d="m 0 0 h 1600 v 1200 h -1600 z"/></clipPath><mask id="f"><g id="g5" filter="url(#a)"><path id="path5" fill-opacity=".35" d="m -1.6 -1.6 h 19.2 v 19.2 h -19.2 z"/></g></mask><clipPath id="g"><path id="path6" d="m 0 0 h 1600 v 1200 h -1600 z"/></clipPath><path id="path7" fill="#222" d="m 1,13 c 0,1.089844 0.910156,2 2,2 h 10 c 1.089844,0 2,-0.910156 2,-2 V 3 C 15,1.910156 14.089844,1 13,1 H 3 C 1.910156,1 1,1.910156 1,3 Z m 2,0 V 3 h 2 v 10 z m 4,0 V 3 h 2 v 10 z m 4,0 V 3 h 2 v 10 z m 0,0"/><g id="g9" mask="url(#b)" transform="rotate(-90,8,8)"><g id="g8" clip-path="url(#c)" transform="translate(-640,-784)"><path id="path8" d="m 550,182 c -0.35156,0.004 -0.69531,0.10156 -1,0.28125 v 3.4375 c 0.30469,0.17969 0.64844,0.27734 1,0.28125 1.10547,0 2,-0.89453 2,-2 0,-1.10547 -0.89453,-2 -2,-2 z m 0,5 c -0.33984,0 -0.67969,0.0586 -1,0.17578 V 194 h 4 v -4 c 0,-1.65625 -1.34375,-3 -3,-3 z m 0,0"/></g></g><g id="g11" mask="url(#d)" transform="rotate(-90,8,8)"><g id="g10" clip-path="url(#e)" transform="translate(-640,-784)"><path id="path9" d="m 569,182 v 4 c 1.10547,0 2,-0.89453 2,-2 0,-1.10547 -0.89453,-2 -2,-2 z m 0,5 v 7 h 3 v -4 c 0,-1.65625 -1.34375,-3 -3,-3 z m 0,0"/></g></g><g id="g13" mask="url(#f)" transform="rotate(-90,8,8)"><g id="g12" clip-path="url(#g)" transform="translate(-640,-784)"><path id="path11" d="m 573,182.26953 v 3.44922 c 0.61328,-0.35547 0.99609,-1.00781 1,-1.71875 0,-0.71484 -0.38281,-1.375 -1,-1.73047 z m 0,4.90625 V 194 h 2 v -4 c 0,-1.26953 -0.80078,-2.40234 -2,-2.82422 z m 0,0"/></g></g></svg>