<svg xmlns="http://www.w3.org/2000/svg" xmlns:svg="http://www.w3.org/2000/svg" id="svg14" width="48" height="48" class="rounded-md border shadow-sm" version="1.1" viewBox="0 0 48 48"><rect id="rect1" width="48" height="48" fill="#fff"/><rect id="rect2" width="16" height="48" fill="#f8f9fa" style="fill:#f2f2f2;fill-opacity:1"/><rect id="rect3" width="12" height="2" x="2" y="6" fill="#06c" rx="1"/><rect id="rect4" width="12" height="2" x="2" y="10" fill="#1a1a1a" fill-opacity=".4" rx="1"/><rect id="rect5" width="8" height="2" x="2" y="14" fill="#1a1a1a" fill-opacity=".3" rx="1"/><rect id="rect6" width="10" height="2" x="2" y="18" fill="#1a1a1a" fill-opacity=".2" rx="1"/><rect id="rect7" width="32" height="48" x="16" y="0" fill="#fff" style="fill:#fafafa;fill-opacity:1"/><rect id="rect8" width="24" height="3" x="20" y="8" fill="#1a1a1a" fill-opacity=".6" rx="1.5"/><rect id="rect9" width="20" height="2" x="20" y="14" fill="#1a1a1a" fill-opacity=".4" rx="1"/><rect id="rect10" width="18" height="2" x="20" y="18" fill="#1a1a1a" fill-opacity=".3" rx="1"/><rect id="rect11" width="22" height="2" x="20" y="22" fill="#1a1a1a" fill-opacity=".2" rx="1"/><rect id="rect12" width="10" height="8" x="20" y="28" fill="#1a1a1a" fill-opacity=".1" rx="2"/><rect id="rect13" width="10" height="8" x="32" y="28" fill="#1a1a1a" fill-opacity=".1" rx="2"/><rect id="rect14" width="22" height="6" x="20" y="38" fill="#1a1a1a" fill-opacity=".05" rx="2"/></svg>